  0
SECTION
  2
HEADER
  9
$ACADVER
  1
AC1012
  9
$DWGCODEPAGE
  3
ansi_1252
  9
$INSBASE
 10
0.0
 20
0.0
 30
0.0
  9
$EXTMIN
 10
1.000000000000000E+20
 20
1.000000000000000E+20
 30
1.000000000000000E+20
  9
$EXTMAX
 10
-1.000000000000000E+20
 20
-1.000000000000000E+20
 30
-1.000000000000000E+20
  9
$LIMMIN
 10
0.0
 20
0.0
  9
$LIMMAX
 10
420.0
 20
297.0
  9
$ORTHOMODE
 70
     0
  9
$REGENMODE
 70
     1
  9
$FILLMODE
 70
     1
  9
$QTEXTMODE
 70
     0
  9
$MIRRTEXT
 70
     1
  9
$DRAGMODE
 70
     2
  9
$LTSCALE
 40
12.7
  9
$OSMODE
 70
    23
  9
$ATTMODE
 70
     1
  9
$TEXTSIZE
 40
3.5
  9
$TRACEWID
 40
1.0
  9
$TEXTSTYLE
  7
ONSHAPE-STANDARD
  9
$CLAYER
  8
0
  9
$CELTYPE
  6
BYLAYER
  9
$CECOLOR
 62
   256
  9
$CELTSCALE
 40
1.0
  9
$DELOBJ
 70
     1
  9
$DISPSILH
 70
     0
  9
$DIMSCALE
 40
1.0
  9
$DIMASZ
 40
2.5
  9
$DIMEXO
 40
0.625
  9
$DIMDLI
 40
3.75
  9
$DIMRND
 40
0.0
  9
$DIMDLE
 40
0.0
  9
$DIMEXE
 40
1.25
  9
$DIMTP
 40
0.0
  9
$DIMTM
 40
0.0
  9
$DIMTXT
 40
3.5
  9
$DIMCEN
 40
2.5
  9
$DIMTSZ
 40
0.0
  9
$DIMTOL
 70
     0
  9
$DIMLIM
 70
     0
  9
$DIMTIH
 70
     0
  9
$DIMTOH
 70
     0
  9
$DIMSE1
 70
     0
  9
$DIMSE2
 70
     0
  9
$DIMTAD
 70
     1
  9
$DIMZIN
 70
     8
  9
$DIMBLK
  1

  9
$DIMASO
 70
     1
  9
$DIMSHO
 70
     1
  9
$DIMPOST
  1

  9
$DIMAPOST
  1

  9
$DIMALT
 70
     0
  9
$DIMALTD
 70
     3
  9
$DIMALTF
 40
0.03937
  9
$DIMLFAC
 40
1.0
  9
$DIMTOFL
 70
     1
  9
$DIMTVP
 40
0.0
  9
$DIMTIX
 70
     0
  9
$DIMSOXD
 70
     0
  9
$DIMSAH
 70
     0
  9
$DIMBLK1
  1

  9
$DIMBLK2
  1

  9
$DIMSTYLE
  2
ONSHAPE-ISO-25
  9
$DIMCLRD
 70
     0
  9
$DIMCLRE
 70
     0
  9
$DIMCLRT
 70
     0
  9
$DIMTFAC
 40
1.0
  9
$DIMGAP
 40
0.625
  9
$DIMJUST
 70
     0
  9
$DIMSD1
 70
     0
  9
$DIMSD2
 70
     0
  9
$DIMTOLJ
 70
     0
  9
$DIMTZIN
 70
     8
  9
$DIMALTZ
 70
     8
  9
$DIMALTTZ
 70
     0
  9
$DIMFIT
 70
     3
  9
$DIMUPT
 70
     1
  9
$DIMUNIT
 70
     2
  9
$DIMDEC
 70
     2
  9
$DIMTDEC
 70
     2
  9
$DIMALTU
 70
     2
  9
$DIMALTTD
 70
     3
  9
$DIMTXSTY
  7
ONSHAPE-STANDARD-DIMENSION
  9
$DIMAUNIT
 70
     0
  9
$LUNITS
 70
     2
  9
$LUPREC
 70
     4
  9
$SKETCHINC
 40
1.0
  9
$FILLETRAD
 40
10.0
  9
$AUNITS
 70
     0
  9
$AUPREC
 70
     0
  9
$MENU
  1
.
  9
$ELEVATION
 40
0.0
  9
$PELEVATION
 40
0.0
  9
$THICKNESS
 40
0.0
  9
$LIMCHECK
 70
     0
  9
$CHAMFERA
 40
0.0
  9
$CHAMFERB
 40
0.0
  9
$CHAMFERC
 40
0.0
  9
$CHAMFERD
 40
0.0
  9
$SKPOLY
 70
     0
  9
$TDCREATE
 40
2458254.05587963
  9
$TDUPDATE
 40
2458254.05587963
  9
$TDINDWG
 40
0.0
  9
$TDUSRTIMER
 40
0.0
  9
$USRTIMER
 70
     1
  9
$ANGBASE
 50
0.0
  9
$ANGDIR
 70
     0
  9
$PDMODE
 70
     0
  9
$PDSIZE
 40
0.0
  9
$PLINEWID
 40
0.0
  9
$COORDS
 70
     1
  9
$SPLFRAME
 70
     0
  9
$SPLINETYPE
 70
     6
  9
$SPLINESEGS
 70
     8
  9
$ATTDIA
 70
     0
  9
$ATTREQ
 70
     1
  9
$HANDLING
 70
     1
  9
$HANDSEED
  5
FC
  9
$SURFTAB1
 70
     6
  9
$SURFTAB2
 70
     6
  9
$SURFTYPE
 70
     6
  9
$SURFU
 70
     6
  9
$SURFV
 70
     6
  9
$UCSNAME
  2

  9
$UCSORG
 10
0.0
 20
0.0
 30
0.0
  9
$UCSXDIR
 10
1.0
 20
0.0
 30
0.0
  9
$UCSYDIR
 10
0.0
 20
1.0
 30
0.0
  9
$PUCSNAME
  2

  9
$PUCSORG
 10
0.0
 20
0.0
 30
0.0
  9
$PUCSXDIR
 10
1.0
 20
0.0
 30
0.0
  9
$PUCSYDIR
 10
0.0
 20
1.0
 30
0.0
  9
$USERI1
 70
     0
  9
$USERI2
 70
     0
  9
$USERI3
 70
     0
  9
$USERI4
 70
     0
  9
$USERI5
 70
     0
  9
$USERR1
 40
0.0
  9
$USERR2
 40
0.0
  9
$USERR3
 40
0.0
  9
$USERR4
 40
0.0
  9
$USERR5
 40
0.0
  9
$WORLDVIEW
 70
     1
  9
$SHADEDGE
 70
     3
  9
$SHADEDIF
 70
    70
  9
$TILEMODE
 70
     1
  9
$MAXACTVP
 70
    64
  9
$PINSBASE
 10
0.0
 20
0.0
 30
0.0
  9
$PLIMCHECK
 70
     0
  9
$PEXTMIN
 10
1.000000000000000E+20
 20
1.000000000000000E+20
 30
1.000000000000000E+20
  9
$PEXTMAX
 10
-1.000000000000000E+20
 20
-1.000000000000000E+20
 30
-1.000000000000000E+20
  9
$PLIMMIN
 10
0.0
 20
0.0
  9
$PLIMMAX
 10
420.0
 20
297.0
  9
$UNITMODE
 70
     0
  9
$VISRETAIN
 70
     1
  9
$PLINEGEN
 70
     0
  9
$PSLTSCALE
 70
     1
  9
$TREEDEPTH
 70
  3020
  9
$PICKSTYLE
 70
     1
  9
$CMLSTYLE
  2
STANDARD
  9
$CMLJUST
 70
     0
  9
$CMLSCALE
 40
20.0
  9
$SAVEIMAGES
 70
     1
  0
ENDSEC
  0
SECTION
  2
CLASSES
  0
CLASS
  1
ACDBDICTIONARYWDFLT
  2
AcDbDictionaryWithDefault
  3
ObjectDBX Classes
 90
    32768
280
     0
281
     0
  0
CLASS
  1
VISUALSTYLE
  2
AcDbVisualStyle
  3
ObjectDBX Classes
 90
     4095
280
     0
281
     0
  0
CLASS
  1
MATERIAL
  2
AcDbMaterial
  3
ObjectDBX Classes
 90
     1153
280
     0
281
     0
  0
CLASS
  1
SCALE
  2
AcDbScale
  3
ObjectDBX Classes
 90
     1153
280
     0
281
     0
  0
CLASS
  1
SUN
  2
AcDbSun
  3
SCENEOE
 90
     1153
280
     0
281
     0
  0
CLASS
  1
TABLESTYLE
  2
AcDbTableStyle
  3
ObjectDBX Classes
 90
     4095
280
     0
281
     0
  0
CLASS
  1
DICTIONARYVAR
  2
AcDbDictionaryVar
  3
ObjectDBX Classes
 90
        0
280
     0
281
     0
  0
CLASS
  1
XRECORD
  2
AcDbXrecord
  3
ObjectDBX Classes
 90
    32768
280
     0
281
     0
  0
CLASS
  1
LWPOLYLINE
  2
AcDbPolyline
  3
ObjectDBX Classes
 90
    32768
280
     0
281
     1
  0
CLASS
  1
HATCH
  2
AcDbHatch
  3
ObjectDBX Classes
 90
    32768
280
     0
281
     1
  0
CLASS
  1
ACDBPLACEHOLDER
  2
AcDbPlaceHolder
  3
ObjectDBX Classes
 90
        0
280
     0
281
     0
  0
CLASS
  1
LAYOUT
  2
AcDbLayout
  3
ObjectDBX Classes
 90
        0
280
     0
281
     0
  0
ENDSEC
  0
SECTION
  2
TABLES
  0
TABLE
  2
VPORT
  5
8
330
0
100
AcDbSymbolTable
 70
     1
  0
VPORT
  5
29
330
8
100
AcDbSymbolTableRecord
100
AcDbViewportTableRecord
  2
*ACTIVE
 70
     0
 10
0.0
 20
0.0
 11
1.0
 21
1.0
 12
402.2229516371697
 22
482.0570299292476
 13
0.0
 23
0.0
 14
10.0
 24
10.0
 15
10.0
 25
10.0
 16
0.0
 26
0.0
 36
1.0
 17
0.0
 27
0.0
 37
0.0
 40
932.6880000000001
 41
0.6561679790026246
 42
50.0
 43
0.0
 44
0.0
 50
0.0
 51
0.0
 71
     0
 72
   100
 73
     1
 74
     3
 75
     0
 76
     0
 77
     0
 78
     0
  0
ENDTAB
  0
TABLE
  2
LTYPE
  5
5
330
0
100
AcDbSymbolTable
 70
     1
  0
LTYPE
  5
14
330
5
100
AcDbSymbolTableRecord
100
AcDbLinetypeTableRecord
  2
BYBLOCK
 70
     0
  3

 72
    65
 73
     0
 40
0.0
  0
LTYPE
  5
15
330
5
100
AcDbSymbolTableRecord
100
AcDbLinetypeTableRecord
  2
BYLAYER
 70
     0
  3

 72
    65
 73
     0
 40
0.0
  0
LTYPE
  5
16
330
5
100
AcDbSymbolTableRecord
100
AcDbLinetypeTableRecord
  2
CONTINUOUS
 70
     0
  3
Solid line
 72
    65
 73
     0
 40
0.0
  0
ENDTAB
  0
TABLE
  2
LAYER
  5
2
330
0
100
AcDbSymbolTable
 70
     3
  0
LAYER
  5
10
330
2
100
AcDbSymbolTableRecord
100
AcDbLayerTableRecord
  2
0
 70
     0
 62
     7
  6
CONTINUOUS
  0
LAYER
  5
72
330
2
100
AcDbSymbolTableRecord
100
AcDbLayerTableRecord
  2
ANNOTATION_TEXT
 70
     0
 62
     7
  6
CONTINUOUS
  0
LAYER
  5
75
330
2
100
AcDbSymbolTableRecord
100
AcDbLayerTableRecord
  2
VISIBLE
 70
     0
 62
     7
  6
CONTINUOUS
  0
ENDTAB
  0
TABLE
  2
STYLE
  5
3
330
0
100
AcDbSymbolTable
 70
     3
  0
STYLE
  5
11
330
3
100
AcDbSymbolTableRecord
100
AcDbTextStyleTableRecord
  2
STANDARD
 70
     0
 40
0.0
 41
1.0
 50
0.0
 71
     0
 42
3.5
  3
txt
  4

  0
STYLE
  5
6E
330
3
100
AcDbSymbolTableRecord
100
AcDbTextStyleTableRecord
  2
ONSHAPE-STANDARD
 70
     0
 40
0.0
 41
1.0
 50
0.0
 71
     0
 42
3.5
  3
NotoSans-Regular.ttf
  4

1001
ACAD
1000
Noto Sans
1071
        0
  0
STYLE
  5
70
330
3
100
AcDbSymbolTableRecord
100
AcDbTextStyleTableRecord
  2
ONSHAPE-STANDARD-DIMENSION
 70
     0
 40
0.0
 41
1.0
 50
0.0
 71
     0
 42
3.5
  3

  4

1001
ACAD
1000
Noto Sans
1071
        0
  0
ENDTAB
  0
TABLE
  2
VIEW
  5
6
330
0
100
AcDbSymbolTable
 70
     0
  0
ENDTAB
  0
TABLE
  2
UCS
  5
7
330
0
100
AcDbSymbolTable
 70
     0
  0
ENDTAB
  0
TABLE
  2
APPID
  5
9
330
0
100
AcDbSymbolTable
 70
     1
  0
APPID
  5
12
330
9
100
AcDbSymbolTableRecord
100
AcDbRegAppTableRecord
  2
ACAD
 70
     0
  0
ENDTAB
  0
TABLE
  2
DIMSTYLE
  5
A
330
0
100
AcDbSymbolTable
 70
     2
  0
DIMSTYLE
105
27
330
A
100
AcDbSymbolTableRecord
100
AcDbDimStyleTableRecord
  2
ISO-25
 70
     0
  3

  4

  5

  6

  7

 40
1.0
 41
2.5
 42
0.625
 43
3.75
 44
1.25
 45
0.0
 46
0.0
 47
0.0
 48
0.0
140
2.5
141
2.5
142
0.0
143
0.03937007874016
144
1.0
145
0.0
146
1.0
147
0.625
 71
     0
 72
     0
 73
     0
 74
     0
 75
     0
 76
     0
 77
     1
 78
     8
170
     0
171
     3
172
     1
173
     0
174
     0
175
     0
176
     0
177
     0
178
     0
270
     2
271
     2
272
     2
273
     2
274
     3
340
11
275
     0
280
     0
281
     0
282
     0
283
     0
284
     8
285
     0
286
     0
287
     3
288
     0
  0
DIMSTYLE
105
6F
330
A
100
AcDbSymbolTableRecord
100
AcDbDimStyleTableRecord
  2
ONSHAPE-ISO-25
 70
     0
  3

  4

  5

  6

  7

 40
1.0
 41
2.5
 42
0.625
 43
3.75
 44
1.25
 45
0.0
 46
0.0
 47
0.0
 48
0.0
140
3.5
141
2.5
142
0.0
143
0.03937
144
1.0
145
0.0
146
1.0
147
0.625
 71
     0
 72
     0
 73
     0
 74
     0
 75
     0
 76
     0
 77
     1
 78
     8
170
     0
171
     3
172
     1
173
     0
174
     0
175
     0
176
     0
177
     0
178
     0
179
     1
270
     2
271
     2
272
     2
273
     2
274
     3
340
70
275
     0
280
     0
281
     0
282
     0
283
     0
284
     8
285
     8
286
     0
287
     3
288
     1
  0
ENDTAB
  0
TABLE
  2
BLOCK_RECORD
  5
1
330
0
100
AcDbSymbolTable
 70
     1
  0
BLOCK_RECORD
  5
1F
330
1
100
AcDbSymbolTableRecord
100
AcDbBlockTableRecord
  2
*MODEL_SPACE
  0
BLOCK_RECORD
  5
1B
330
1
100
AcDbSymbolTableRecord
100
AcDbBlockTableRecord
  2
*PAPER_SPACE
  0
ENDTAB
  0
ENDSEC
  0
SECTION
  2
BLOCKS
  0
BLOCK
  5
20
330
1F
100
AcDbEntity
  8
0
100
AcDbBlockBegin
  2
*MODEL_SPACE
 70
     0
 10
0.0
 20
0.0
 30
0.0
  3
*MODEL_SPACE
  1

  0
ENDBLK
  5
21
330
1F
100
AcDbEntity
  8
0
100
AcDbBlockEnd
  0
BLOCK
  5
1C
330
1B
100
AcDbEntity
 67
     1
  8
0
100
AcDbBlockBegin
  2
*PAPER_SPACE
 70
     0
 10
0.0
 20
0.0
 30
0.0
  3
*PAPER_SPACE
  1

  0
ENDBLK
  5
1D
330
1B
100
AcDbEntity
 67
     1
  8
0
100
AcDbBlockEnd
  0
ENDSEC
  0
SECTION
  2
ENTITIES
  0
MTEXT
  5
71
330
1F
100
AcDbEntity
  8
ANNOTATION_TEXT
 60
     1
100
AcDbMText
 10
402.2229516371697
 20
-22.61297007075245
 30
0.0
 40
3.5
 41
0.0
 71
     2
 72
     1
  1

  7
ONSHAPE-STANDARD
1001
ACAD
1000
ACAD_MTEXT_DEFINED_HEIGHT_BEGIN
1070
    46
1040
3.5
1000
ACAD_MTEXT_DEFINED_HEIGHT_END
  0
ARC
  5
76
330
1F
100
AcDbEntity
  8
VISIBLE
100
AcDbCircle
 10
203.8229516371697
 20
126.4570299292475
 30
0.0000000000000031
 40
101.6
100
AcDbArc
 50
180.0
 51
270.0
  0
LINE
  5
77
330
1F
100
AcDbEntity
  8
VISIBLE
100
AcDbLine
 10
102.2229516371697
 20
126.4570299292475
 30
0.0
 11
102.2229516371697
 21
837.6570299292475
 31
0.0
  0
ARC
  5
78
330
1F
100
AcDbEntity
  8
VISIBLE
100
AcDbCircle
 10
203.8229516371697
 20
837.6570299292475
 30
-0.0000000000000031
 40
101.6
100
AcDbArc
 50
90.0
 51
180.0
  0
LINE
  5
79
330
1F
100
AcDbEntity
  8
VISIBLE
100
AcDbLine
 10
600.6229516371696
 20
939.2570299292476
 30
0.0
 11
203.8229516371697
 21
939.2570299292476
 31
0.0
  0
ARC
  5
7A
330
1F
100
AcDbEntity
  8
VISIBLE
100
AcDbCircle
 10
600.6229516371696
 20
837.6570299292475
 30
-0.0000000000000031
 40
101.6
100
AcDbArc
 50
0.0
 51
90.0
  0
LINE
  5
7B
330
1F
100
AcDbEntity
  8
VISIBLE
100
AcDbLine
 10
702.2229516371697
 20
126.4570299292475
 30
0.0
 11
702.2229516371697
 21
837.6570299292475
 31
0.0
  0
ARC
  5
7C
330
1F
100
AcDbEntity
  8
VISIBLE
100
AcDbCircle
 10
600.6229516371696
 20
126.4570299292475
 30
0.0000000000000031
 40
101.6
100
AcDbArc
 50
270.0
 51
0.000000000000024
  0
LINE
  5
7D
330
1F
100
AcDbEntity
  8
VISIBLE
100
AcDbLine
 10
600.6229516371696
 20
24.85702992924752
 30
0.0
 11
203.8229516371697
 21
24.85702992924752
 31
0.0
  0
LINE
  5
7E
330
1F
100
AcDbEntity
  8
VISIBLE
100
AcDbLine
 10
153.0229516371697
 20
543.4570299292475
 30
0.0
 11
153.0229516371697
 21
863.0570299292476
 31
0.0
  0
ARC
  5
7F
330
1F
100
AcDbEntity
  8
VISIBLE
100
AcDbCircle
 10
-183.0229516371696
 20
543.4570299292475
 30
0.0000000000000324
 40
30.0
210
0.0
220
6.123233995736766E-17
230
-1.0
100
AcDbArc
 50
270.0
 51
0.0
  0
LINE
  5
80
330
1F
100
AcDbEntity
  8
VISIBLE
100
AcDbLine
 10
273.6979516371697
 20
513.4570299292475
 30
0.0
 11
183.0229516371696
 21
513.4570299292475
 31
0.0
  0
LINE
  5
81
330
1F
100
AcDbEntity
  8
VISIBLE
100
AcDbLine
 10
273.6979516371697
 20
527.5070299292474
 30
0.0
 11
273.6979516371697
 21
513.4570299292475
 31
0.0
  0
ARC
  5
82
330
1F
100
AcDbEntity
  8
VISIBLE
100
AcDbCircle
 10
278.6979516371697
 20
527.5070299292474
 30
-0.0000000000000002
 40
5.0
100
AcDbArc
 50
90.0
 51
180.0
  0
LINE
  5
83
330
1F
100
AcDbEntity
  8
VISIBLE
100
AcDbLine
 10
287.7479516371697
 20
532.5070299292474
 30
0.0
 11
278.6979516371697
 21
532.5070299292474
 31
0.0
  0
ARC
  5
84
330
1F
100
AcDbEntity
  8
VISIBLE
100
AcDbCircle
 10
287.7479516371697
 20
527.5070299292474
 30
-0.0000000000000002
 40
5.0
100
AcDbArc
 50
0.0
 51
90.0
  0
LINE
  5
85
330
1F
100
AcDbEntity
  8
VISIBLE
100
AcDbLine
 10
292.7479516371697
 20
495.0516448015725
 30
0.0
 11
292.7479516371697
 21
527.5070299292474
 31
0.0
  0
ARC
  5
86
330
1F
100
AcDbEntity
  8
VISIBLE
100
AcDbCircle
 10
277.7479516371696
 20
495.0516448015725
 30
0.0000000000000004
 40
15.0
100
AcDbArc
 50
309.9999999999997
 51
0.0000000000002171
  0
LINE
  5
87
330
1F
100
AcDbEntity
  8
VISIBLE
100
AcDbLine
 10
174.4556950559771
 20
388.7980410608408
 30
0.0
 11
287.3897657824676
 21
483.5609781547878
 31
0.0
  0
ARC
  5
88
330
1F
100
AcDbEntity
  8
VISIBLE
100
AcDbCircle
 10
-213.0229516371696
 20
342.8353744737021
 30
0.0000000000000224
 40
60.0
210
0.0
220
6.123233995736766E-17
230
-1.0
100
AcDbArc
 50
0.0
 51
49.99999999999993
  0
LINE
  5
89
330
1F
100
AcDbEntity
  8
VISIBLE
100
AcDbLine
 10
153.0229516371697
 20
126.4570299292475
 30
0.0
 11
153.0229516371697
 21
342.8353744737021
 31
0.0
  0
ARC
  5
8A
330
1F
100
AcDbEntity
  8
VISIBLE
100
AcDbCircle
 10
203.8229516371697
 20
126.4570299292475
 30
0.0000000000000016
 40
50.8
100
AcDbArc
 50
180.0
 51
270.0
  0
LINE
  5
8B
330
1F
100
AcDbEntity
  8
VISIBLE
100
AcDbLine
 10
600.6229516371696
 20
75.65702992924759
 30
0.0
 11
203.8229516371697
 21
75.65702992924759
 31
0.0
  0
ARC
  5
8C
330
1F
100
AcDbEntity
  8
VISIBLE
100
AcDbCircle
 10
600.6229516371696
 20
126.4570299292475
 30
0.0000000000000016
 40
50.8
100
AcDbArc
 50
270.0
 51
0.0000000000000481
  0
LINE
  5
8D
330
1F
100
AcDbEntity
  8
VISIBLE
100
AcDbLine
 10
651.4229516371697
 20
126.4570299292475
 30
0.0
 11
651.4229516371697
 21
342.8353744737023
 31
0.0
  0
ARC
  5
8E
330
1F
100
AcDbEntity
  8
VISIBLE
100
AcDbCircle
 10
-591.4229516371697
 20
342.8353744737023
 30
0.0000000000000224
 40
60.0
210
0.0
220
6.123233995736766E-17
230
-1.0
100
AcDbArc
 50
130.0000000000002
 51
180.0
  0
LINE
  5
8F
330
1F
100
AcDbEntity
  8
VISIBLE
100
AcDbLine
 10
629.9902082183622
 20
388.7980410608408
 30
0.0
 11
517.0561374918717
 21
483.5609781547878
 31
0.0
  0
ARC
  5
90
330
1F
100
AcDbEntity
  8
VISIBLE
100
AcDbCircle
 10
526.6979516371697
 20
495.0516448015725
 30
0.0000000000000004
 40
15.0
100
AcDbArc
 50
179.9999999999998
 51
230.0000000000001
  0
LINE
  5
91
330
1F
100
AcDbEntity
  8
VISIBLE
100
AcDbLine
 10
511.6979516371697
 20
495.0516448015725
 30
0.0
 11
511.6979516371697
 21
527.5070299292474
 31
0.0
  0
ARC
  5
92
330
1F
100
AcDbEntity
  8
VISIBLE
100
AcDbCircle
 10
516.6979516371697
 20
527.5070299292474
 30
-0.0000000000000002
 40
5.0
100
AcDbArc
 50
90.0
 51
180.0
  0
LINE
  5
93
330
1F
100
AcDbEntity
  8
VISIBLE
100
AcDbLine
 10
516.6979516371697
 20
532.5070299292474
 30
0.0
 11
525.7479516371696
 21
532.5070299292474
 31
0.0
  0
ARC
  5
94
330
1F
100
AcDbEntity
  8
VISIBLE
100
AcDbCircle
 10
525.7479516371696
 20
527.5070299292474
 30
-0.0000000000000002
 40
5.0
100
AcDbArc
 50
0.0
 51
90.0
  0
LINE
  5
95
330
1F
100
AcDbEntity
  8
VISIBLE
100
AcDbLine
 10
530.7479516371696
 20
527.5070299292474
 30
0.0
 11
530.7479516371696
 21
513.4570299292475
 31
0.0
  0
LINE
  5
96
330
1F
100
AcDbEntity
  8
VISIBLE
100
AcDbLine
 10
530.7479516371696
 20
513.4570299292475
 30
0.0
 11
621.4229516371697
 21
513.4570299292475
 31
0.0
  0
ARC
  5
97
330
1F
100
AcDbEntity
  8
VISIBLE
100
AcDbCircle
 10
-621.4229516371697
 20
543.4570299292475
 30
0.0000000000000324
 40
30.0
210
0.0
220
6.123233995736766E-17
230
-1.0
100
AcDbArc
 50
180.0
 51
270.0
  0
LINE
  5
98
330
1F
100
AcDbEntity
  8
VISIBLE
100
AcDbLine
 10
651.4229516371697
 20
543.4570299292475
 30
0.0
 11
651.4229516371697
 21
863.0570299292476
 31
0.0
  0
LINE
  5
99
330
1F
100
AcDbEntity
  8
VISIBLE
100
AcDbLine
 10
651.4229516371697
 20
863.0570299292476
 30
0.0
 11
568.5229516371696
 21
863.0570299292476
 31
0.0
  0
ARC
  5
9A
330
1F
100
AcDbEntity
  8
VISIBLE
100
AcDbCircle
 10
568.5229516371696
 20
869.0570299292476
 30
0.0000000000000002
 40
6.0
100
AcDbArc
 50
180.0
 51
270.0
  0
LINE
  5
9B
330
1F
100
AcDbEntity
  8
VISIBLE
100
AcDbLine
 10
562.5229516371696
 20
869.0570299292476
 30
0.0
 11
562.5229516371696
 21
882.4570299292475
 31
0.0
  0
ARC
  5
9C
330
1F
100
AcDbEntity
  8
VISIBLE
100
AcDbCircle
 10
-556.5229516371696
 20
882.4570299292475
 30
0.0000000000000542
 40
6.0
210
0.0
220
6.123233995736766E-17
230
-1.0
100
AcDbArc
 50
90.0
 51
180.0
  0
LINE
  5
9D
330
1F
100
AcDbEntity
  8
VISIBLE
100
AcDbLine
 10
556.5229516371696
 20
888.4570299292475
 30
0.0
 11
247.9229516371697
 21
888.4570299292475
 31
0.0
  0
ARC
  5
9E
330
1F
100
AcDbEntity
  8
VISIBLE
100
AcDbCircle
 10
-247.9229516371697
 20
882.4570299292475
 30
0.0000000000000542
 40
6.0
210
0.0
220
6.123233995736766E-17
230
-1.0
100
AcDbArc
 50
0.0
 51
90.0
  0
LINE
  5
9F
330
1F
100
AcDbEntity
  8
VISIBLE
100
AcDbLine
 10
241.9229516371697
 20
869.0570299292476
 30
0.0
 11
241.9229516371697
 21
882.4570299292475
 31
0.0
  0
ARC
  5
A0
330
1F
100
AcDbEntity
  8
VISIBLE
100
AcDbCircle
 10
235.9229516371697
 20
869.0570299292476
 30
0.0000000000000002
 40
6.0
100
AcDbArc
 50
270.0
 51
0.0
  0
LINE
  5
A1
330
1F
100
AcDbEntity
  8
VISIBLE
100
AcDbLine
 10
153.0229516371697
 20
863.0570299292476
 30
0.0
 11
235.9229516371697
 21
863.0570299292476
 31
0.0
  0
ARC
  5
A2
330
1F
100
AcDbEntity
  8
VISIBLE
100
AcDbCircle
 10
277.7479516371698
 20
495.0516448015724
 30
0.0000000000000017
 40
72.404
100
AcDbArc
 50
309.9999999999999
 51
0.000000000000045
  0
LINE
  5
A3
330
1F
100
AcDbEntity
  8
VISIBLE
100
AcDbLine
 10
246.1481906685158
 20
374.0195876506704
 30
0.0
 11
324.2883457289138
 21
439.586962941986
 31
0.0
  0
ARC
  5
A4
330
1F
100
AcDbEntity
  8
VISIBLE
100
AcDbCircle
 10
-310.4269516371698
 20
297.4151433387726
 30
0.0000000000000206
 40
100.0
210
0.0
220
6.123233995736766E-17
230
-1.0
100
AcDbArc
 50
0.0
 51
49.99999999999994
  0
LINE
  5
A5
330
1F
100
AcDbEntity
  8
VISIBLE
100
AcDbLine
 10
210.4269516371699
 20
213.0610299292476
 30
0.0
 11
210.4269516371699
 21
297.4151433387726
 31
0.0
  0
ARC
  5
A6
330
1F
100
AcDbEntity
  8
VISIBLE
100
AcDbCircle
 10
-290.4269516371698
 20
213.0610299292476
 30
0.0000000000000106
 40
80.0
210
0.0
220
6.123233995736766E-17
230
-1.0
100
AcDbArc
 50
270.0
 51
0.0
  0
LINE
  5
A7
330
1F
100
AcDbEntity
  8
VISIBLE
100
AcDbLine
 10
514.0189516371697
 20
133.0610299292476
 30
0.0
 11
290.4269516371698
 21
133.0610299292476
 31
0.0
  0
ARC
  5
A8
330
1F
100
AcDbEntity
  8
VISIBLE
100
AcDbCircle
 10
-514.0189516371697
 20
213.0610299292476
 30
0.0000000000000106
 40
80.0
210
0.0
220
6.123233995736766E-17
230
-1.0
100
AcDbArc
 50
180.0
 51
269.9999999999998
  0
LINE
  5
A9
330
1F
100
AcDbEntity
  8
VISIBLE
100
AcDbLine
 10
594.0189516371697
 20
213.0610299292476
 30
0.0
 11
594.0189516371697
 21
297.4151433387726
 31
0.0
  0
ARC
  5
AA
330
1F
100
AcDbEntity
  8
VISIBLE
100
AcDbCircle
 10
-494.0189516371699
 20
297.4151433387726
 30
0.0000000000000206
 40
100.0
210
0.0
220
6.123233995736766E-17
230
-1.0
100
AcDbArc
 50
129.9999999999998
 51
180.0
  0
LINE
  5
AB
330
1F
100
AcDbEntity
  8
VISIBLE
100
AcDbLine
 10
558.2977126058236
 20
374.0195876506705
 30
0.0
 11
480.1575575454257
 21
439.5869629419861
 31
0.0
  0
ARC
  5
AC
330
1F
100
AcDbEntity
  8
VISIBLE
100
AcDbCircle
 10
-526.6979516371698
 20
495.0516448015726
 30
0.0000000000000286
 40
72.404
210
0.0
220
6.123233995736766E-17
230
-1.0
100
AcDbArc
 50
309.9999999999999
 51
0.0
  0
LINE
  5
AD
330
1F
100
AcDbEntity
  8
VISIBLE
100
AcDbLine
 10
454.2939516371698
 20
495.0516448015725
 30
0.0
 11
454.2939516371698
 21
535.0516448015726
 31
0.0
  0
LINE
  5
AE
330
1F
100
AcDbEntity
  8
VISIBLE
100
AcDbLine
 10
350.1519516371698
 20
535.0516448015725
 30
0.0
 11
454.2939516371698
 21
535.0516448015726
 31
0.0
  0
LINE
  5
AF
330
1F
100
AcDbEntity
  8
VISIBLE
100
AcDbLine
 10
350.1519516371698
 20
495.0516448015724
 30
0.0
 11
350.1519516371698
 21
535.0516448015725
 31
0.0
  0
LINE
  5
B0
330
1F
100
AcDbEntity
  8
VISIBLE
100
AcDbLine
 10
537.3519516371698
 20
527.5070299292476
 30
0.0
 11
537.3519516371698
 21
520.0610299292475
 31
0.0
  0
ARC
  5
B1
330
1F
100
AcDbEntity
  8
VISIBLE
100
AcDbCircle
 10
-525.7479516371698
 20
527.5070299292476
 30
0.0000000000000327
 40
11.604
210
0.0
220
6.123233995736766E-17
230
-1.0
100
AcDbArc
 50
90.0
 51
180.0
  0
LINE
  5
B2
330
1F
100
AcDbEntity
  8
VISIBLE
100
AcDbLine
 10
516.6979516371698
 20
539.1110299292475
 30
0.0
 11
525.7479516371698
 21
539.1110299292475
 31
0.0
  0
ARC
  5
B3
330
1F
100
AcDbEntity
  8
VISIBLE
100
AcDbCircle
 10
-516.6979516371698
 20
527.5070299292476
 30
0.0000000000000327
 40
11.604
210
0.0
220
6.123233995736766E-17
230
-1.0
100
AcDbArc
 50
0.0
 51
90.0
  0
LINE
  5
B4
330
1F
100
AcDbEntity
  8
VISIBLE
100
AcDbLine
 10
505.0939516371698
 20
495.0516448015726
 30
0.0
 11
505.0939516371698
 21
527.5070299292476
 31
0.0
  0
ARC
  5
B5
330
1F
100
AcDbEntity
  8
VISIBLE
100
AcDbCircle
 10
-526.6979516371698
 20
495.0516448015726
 30
0.0000000000000298
 40
21.604
210
0.0
220
6.123233995736766E-17
230
-1.0
100
AcDbArc
 50
309.9999999999997
 51
0.0
  0
LINE
  5
B6
330
1F
100
AcDbEntity
  8
VISIBLE
100
AcDbLine
 10
625.7452388439924
 20
383.7390835584832
 30
0.0
 11
512.8111681175019
 21
478.5020206524301
 31
0.0
  0
ARC
  5
B7
330
1F
100
AcDbEntity
  8
VISIBLE
100
AcDbCircle
 10
591.4229516371697
 20
342.8353744737024
 30
-0.0000000000000013
 40
53.396
100
AcDbArc
 50
0.0
 51
49.99999999999967
  0
LINE
  5
B8
330
1F
100
AcDbEntity
  8
VISIBLE
100
AcDbLine
 10
644.8189516371698
 20
126.4570299292475
 30
0.0
 11
644.8189516371698
 21
342.8353744737024
 31
0.0
  0
ARC
  5
B9
330
1F
100
AcDbEntity
  8
VISIBLE
100
AcDbCircle
 10
-600.6229516371698
 20
126.4570299292475
 30
0.0000000000000064
 40
44.196
210
0.0
220
6.123233995736766E-17
230
-1.0
100
AcDbArc
 50
180.0
 51
270.0
  0
LINE
  5
BA
330
1F
100
AcDbEntity
  8
VISIBLE
100
AcDbLine
 10
600.6229516371698
 20
82.26102992924751
 30
0.0
 11
203.8229516371698
 21
82.26102992924751
 31
0.0
  0
ARC
  5
BB
330
1F
100
AcDbEntity
  8
VISIBLE
100
AcDbCircle
 10
203.8229516371698
 20
126.4570299292475
 30
0.0000000000000014
 40
44.196
100
AcDbArc
 50
179.9999999999999
 51
270.0
  0
LINE
  5
BC
330
1F
100
AcDbEntity
  8
VISIBLE
100
AcDbLine
 10
159.6269516371698
 20
342.8353744737021
 30
0.0
 11
159.6269516371698
 21
126.4570299292475
 31
0.0
  0
ARC
  5
BD
330
1F
100
AcDbEntity
  8
VISIBLE
100
AcDbCircle
 10
-213.0229516371697
 20
342.8353744737021
 30
0.0000000000000222
 40
53.396
210
0.0
220
6.123233995736766E-17
230
-1.0
100
AcDbArc
 50
0.0
 51
49.99999999999997
  0
LINE
  5
BE
330
1F
100
AcDbEntity
  8
VISIBLE
100
AcDbLine
 10
178.7006644303473
 20
383.7390835584831
 30
0.0
 11
291.6347351568378
 21
478.5020206524301
 31
0.0
  0
ARC
  5
BF
330
1F
100
AcDbEntity
  8
VISIBLE
100
AcDbCircle
 10
277.7479516371698
 20
495.0516448015724
 30
0.0000000000000005
 40
21.604
100
AcDbArc
 50
310.0000000000003
 51
0.0000000000001508
  0
LINE
  5
C0
330
1F
100
AcDbEntity
  8
VISIBLE
100
AcDbLine
 10
299.3519516371697
 20
495.0516448015725
 30
0.0
 11
299.3519516371697
 21
527.5070299292476
 31
0.0
  0
ARC
  5
C1
330
1F
100
AcDbEntity
  8
VISIBLE
100
AcDbCircle
 10
287.7479516371698
 20
527.5070299292476
 30
-0.0000000000000004
 40
11.604
100
AcDbArc
 50
0.0
 51
90.0
  0
LINE
  5
C2
330
1F
100
AcDbEntity
  8
VISIBLE
100
AcDbLine
 10
287.7479516371698
 20
539.1110299292475
 30
0.0
 11
278.6979516371698
 21
539.1110299292475
 31
0.0
  0
ARC
  5
C3
330
1F
100
AcDbEntity
  8
VISIBLE
100
AcDbCircle
 10
278.6979516371698
 20
527.5070299292476
 30
-0.0000000000000004
 40
11.604
100
AcDbArc
 50
90.0
 51
180.0
  0
LINE
  5
C4
330
1F
100
AcDbEntity
  8
VISIBLE
100
AcDbLine
 10
267.0939516371697
 20
527.5070299292476
 30
0.0
 11
267.0939516371697
 21
520.0610299292475
 31
0.0
  0
LINE
  5
C5
330
1F
100
AcDbEntity
  8
VISIBLE
100
AcDbLine
 10
267.0939516371697
 20
520.0610299292475
 30
0.0
 11
183.0229516371699
 21
520.0610299292475
 31
0.0
  0
ARC
  5
C6
330
1F
100
AcDbEntity
  8
VISIBLE
100
AcDbCircle
 10
183.0229516371699
 20
543.4570299292475
 30
0.0000000000000007
 40
23.396
100
AcDbArc
 50
180.0
 51
270.0
  0
ARC
  5
C7
330
1F
100
AcDbEntity
  8
VISIBLE
100
AcDbCircle
 10
-311.9229516371697
 20
669.1110299292476
 30
0.0000000000000388
 40
70.0
210
0.0
220
6.123233995736766E-17
230
-1.0
100
AcDbArc
 50
270.0
 51
0.0
  0
LINE
  5
C8
330
1F
100
AcDbEntity
  8
VISIBLE
100
AcDbLine
 10
311.9229516371697
 20
599.1110299292476
 30
0.0
 11
492.5229516371698
 21
599.1110299292476
 31
0.0
  0
ARC
  5
C9
330
1F
100
AcDbEntity
  8
VISIBLE
100
AcDbCircle
 10
-492.5229516371698
 20
669.1110299292476
 30
0.0000000000000388
 40
70.0
210
0.0
220
6.123233995736766E-17
230
-1.0
100
AcDbArc
 50
180.0
 51
270.0
  0
LINE
  5
CA
330
1F
100
AcDbEntity
  8
VISIBLE
100
AcDbLine
 10
644.8189516371698
 20
856.4530299292476
 30
0.0
 11
562.5229516371697
 21
856.4530299292476
 31
0.0
  0
LINE
  5
CB
330
1F
100
AcDbEntity
  8
VISIBLE
100
AcDbLine
 10
644.8189516371698
 20
543.4570299292475
 30
0.0
 11
644.8189516371698
 21
856.4530299292476
 31
0.0
  0
ARC
  5
CC
330
1F
100
AcDbEntity
  8
VISIBLE
100
AcDbCircle
 10
621.4229516371697
 20
543.4570299292475
 30
0.0000000000000007
 40
23.396
100
AcDbArc
 50
270.0
 51
0.0
  0
LINE
  5
CD
330
1F
100
AcDbEntity
  8
VISIBLE
100
AcDbLine
 10
537.3519516371698
 20
520.0610299292475
 30
0.0
 11
621.4229516371697
 21
520.0610299292475
 31
0.0
  0
LINE
  5
CE
330
1F
100
AcDbEntity
  8
VISIBLE
100
AcDbLine
 10
241.9229516371698
 20
856.4530299292476
 30
0.0
 11
159.6269516371698
 21
856.4530299292476
 31
0.0
  0
LINE
  5
CF
330
1F
100
AcDbEntity
  8
VISIBLE
100
AcDbLine
 10
562.5229516371697
 20
856.4530299292476
 30
0.0
 11
562.5229516371697
 21
669.1110299292476
 31
0.0
  0
LINE
  5
D0
330
1F
100
AcDbEntity
  8
VISIBLE
100
AcDbLine
 10
241.9229516371698
 20
856.4530299292476
 30
0.0
 11
241.9229516371698
 21
669.1110299292476
 31
0.0
  0
LINE
  5
D1
330
1F
100
AcDbEntity
  8
VISIBLE
100
AcDbLine
 10
159.6269516371698
 20
856.4530299292476
 30
0.0
 11
159.6269516371698
 21
543.4570299292475
 31
0.0
  0
CIRCLE
  5
D2
330
1F
100
AcDbEntity
  8
VISIBLE
100
AcDbCircle
 10
283.2229516371698
 20
339.6650299292475
 30
0.0
 40
15.0
  0
LINE
  5
D3
330
1F
100
AcDbEntity
  8
VISIBLE
100
AcDbLine
 10
217.0309516371698
 20
297.4151433387727
 30
0.0
 11
217.0309516371698
 21
213.0610299292474
 31
0.0
  0
ARC
  5
D4
330
1F
100
AcDbEntity
  8
VISIBLE
100
AcDbCircle
 10
-310.4269516371698
 20
297.4151433387726
 30
0.0000000000000204
 40
93.396
210
0.0
220
6.123233995736766E-17
230
-1.0
100
AcDbArc
 50
0.0
 51
50.0
  0
LINE
  5
D5
330
1F
100
AcDbEntity
  8
VISIBLE
100
AcDbLine
 10
250.3931600428858
 20
368.9606301483126
 30
0.0
 11
328.5333151032838
 21
434.5280054396283
 31
0.0
  0
LINE
  5
D6
330
1F
100
AcDbEntity
  8
VISIBLE
100
AcDbLine
 10
356.7559516371698
 20
495.0516448015725
 30
0.0
 11
356.7559516371698
 21
528.4476448015724
 31
0.0
  0
LINE
  5
D7
330
1F
100
AcDbEntity
  8
VISIBLE
100
AcDbLine
 10
356.7559516371698
 20
528.4476448015724
 30
0.0
 11
447.6899516371698
 21
528.4476448015724
 31
0.0
  0
LINE
  5
D8
330
1F
100
AcDbEntity
  8
VISIBLE
100
AcDbLine
 10
447.6899516371698
 20
495.0516448015724
 30
0.0
 11
447.6899516371698
 21
528.4476448015724
 31
0.0
  0
ARC
  5
D9
330
1F
100
AcDbEntity
  8
VISIBLE
100
AcDbCircle
 10
-526.6979516371698
 20
495.0516448015724
 30
0.0000000000000285
 40
79.008
210
0.0
220
6.123233995736766E-17
230
-1.0
100
AcDbArc
 50
309.9999999999997
 51
0.0
  0
LINE
  5
DA
330
1F
100
AcDbEntity
  8
VISIBLE
100
AcDbLine
 10
554.0527432314536
 20
368.9606301483127
 30
0.0
 11
475.9125881710559
 21
434.528005439628
 31
0.0
  0
ARC
  5
DB
330
1F
100
AcDbEntity
  8
VISIBLE
100
AcDbCircle
 10
-494.0189516371698
 20
297.4151433387725
 30
0.0000000000000204
 40
93.396
210
0.0
220
6.123233995736766E-17
230
-1.0
100
AcDbArc
 50
129.9999999999999
 51
180.0
  0
LINE
  5
DC
330
1F
100
AcDbEntity
  8
VISIBLE
100
AcDbLine
 10
587.4149516371698
 20
213.0610299292474
 30
0.0
 11
587.4149516371698
 21
297.4151433387724
 31
0.0
  0
ARC
  5
DD
330
1F
100
AcDbEntity
  8
VISIBLE
100
AcDbCircle
 10
-514.0189516371697
 20
213.0610299292474
 30
0.0000000000000108
 40
73.396
210
0.0
220
6.123233995736766E-17
230
-1.0
100
AcDbArc
 50
180.0
 51
270.0
  0
LINE
  5
DE
330
1F
100
AcDbEntity
  8
VISIBLE
100
AcDbLine
 10
514.0189516371697
 20
139.6650299292474
 30
0.0
 11
290.4269516371698
 21
139.6650299292475
 31
0.0
  0
ARC
  5
DF
330
1F
100
AcDbEntity
  8
VISIBLE
100
AcDbCircle
 10
-290.4269516371698
 20
213.0610299292474
 30
0.0000000000000108
 40
73.396
210
0.0
220
6.123233995736766E-17
230
-1.0
100
AcDbArc
 50
270.0
 51
0.0
  0
ARC
  5
E0
330
1F
100
AcDbEntity
  8
VISIBLE
100
AcDbCircle
 10
277.7479516371698
 20
495.0516448015725
 30
0.0000000000000019
 40
79.008
100
AcDbArc
 50
309.9999999999999
 51
359.9999999999999
  0
CIRCLE
  5
E1
330
1F
100
AcDbEntity
  8
VISIBLE
100
AcDbCircle
 10
-521.2229516371698
 20
339.6650299292475
 30
0.0000000000000208
 40
15.0
210
0.0
220
6.123233995736766E-17
230
-1.0
  0
LINE
  5
E2
330
1F
100
AcDbEntity
  8
VISIBLE
100
AcDbLine
 10
311.9229516371699
 20
605.7150299292475
 30
0.0
 11
492.5229516371699
 21
605.7150299292475
 31
0.0
  0
ARC
  5
E3
330
1F
100
AcDbEntity
  8
VISIBLE
100
AcDbCircle
 10
-311.9229516371699
 20
669.1110299292476
 30
0.000000000000039
 40
63.39599999999999
210
0.0
220
6.123233995736766E-17
230
-1.0
100
AcDbArc
 50
270.0
 51
0.0
  0
LINE
  5
E4
330
1F
100
AcDbEntity
  8
VISIBLE
100
AcDbLine
 10
555.9189516371699
 20
669.1110299292476
 30
0.0
 11
555.9189516371699
 21
881.8530299292476
 31
0.0
  0
ARC
  5
E5
330
1F
100
AcDbEntity
  8
VISIBLE
100
AcDbCircle
 10
-492.5229516371699
 20
669.1110299292476
 30
0.000000000000039
 40
63.39599999999999
210
0.0
220
6.123233995736766E-17
230
-1.0
100
AcDbArc
 50
180.0
 51
270.0
  0
LINE
  5
E6
330
1F
100
AcDbEntity
  8
VISIBLE
100
AcDbLine
 10
248.5269516371698
 20
881.8530299292476
 30
0.0
 11
248.5269516371698
 21
669.1110299292476
 31
0.0
  0
LINE
  5
E7
330
1F
100
AcDbEntity
  8
VISIBLE
100
AcDbLine
 10
555.9189516371699
 20
881.8530299292476
 30
0.0
 11
248.5269516371698
 21
881.8530299292476
 31
0.0
  0
ENDSEC
  0
SECTION
  2
OBJECTS
  0
DICTIONARY
  5
C
330
0
100
AcDbDictionary
  3
ACAD_GROUP
350
D
  3
ACAD_LAYOUT
350
1A
  3
ACAD_MATERIAL
350
43
  3
ACAD_MLEADERSTYLE
350
ED
  3
ACAD_MLINESTYLE
350
17
  3
ACAD_PLOTSETTINGS
350
19
  3
ACAD_SCALELIST
350
47
  3
ACAD_VISUALSTYLE
350
2A
  3
ACDBVARIABLEDICTIONARY
350
6C
  3
ONSHAPE_DATA
350
E8
1001
ACAD
1000
TREAT_AS_HARD
1070
     0
  0
DICTIONARY
  5
D
102
{ACAD_REACTORS
330
C
102
}
330
C
100
AcDbDictionary
1001
ACAD
1000
TREAT_AS_HARD
1070
     0
  0
DICTIONARY
  5
1A
102
{ACAD_REACTORS
330
C
102
}
330
C
100
AcDbDictionary
1001
ACAD
1000
TREAT_AS_HARD
1070
     0
  0
DICTIONARY
  5
43
102
{ACAD_REACTORS
330
C
102
}
330
C
100
AcDbDictionary
  3
BYBLOCK
350
45
  3
BYLAYER
350
44
  3
GLOBAL
350
46
1001
ACAD
1000
TREAT_AS_HARD
1070
     0
  0
DICTIONARY
  5
ED
102
{ACAD_REACTORS
330
C
102
}
330
C
100
AcDbDictionary
1001
ACAD
1000
TREAT_AS_HARD
1070
     0
  0
DICTIONARY
  5
17
102
{ACAD_REACTORS
330
C
102
}
330
C
100
AcDbDictionary
  3
STANDARD
350
18
1001
ACAD
1000
TREAT_AS_HARD
1070
     0
  0
DICTIONARY
  5
19
102
{ACAD_REACTORS
330
C
102
}
330
C
100
AcDbDictionary
1001
ACAD
1000
TREAT_AS_HARD
1070
     0
  0
DICTIONARY
  5
47
102
{ACAD_REACTORS
330
C
102
}
330
C
100
AcDbDictionary
  3
A0
350
48
  3
A1
350
49
  3
A2
350
4A
  3
A3
350
4B
  3
A4
350
4C
  3
A5
350
4D
  3
A6
350
4E
  3
A7
350
4F
  3
A8
350
50
  3
A9
350
51
  3
B0
350
52
  3
B1
350
53
  3
B2
350
54
  3
B3
350
55
  3
B4
350
56
  3
B5
350
57
  3
B6
350
58
  3
B7
350
59
  3
B8
350
5A
  3
B9
350
5B
  3
C0
350
5C
  3
C1
350
5D
  3
C2
350
5E
  3
C3
350
5F
  3
C4
350
60
  3
C5
350
61
  3
C6
350
62
  3
C7
350
63
  3
C8
350
64
  3
C9
350
65
  3
D0
350
66
  3
D1
350
67
  3
D2
350
68
1001
ACAD
1000
TREAT_AS_HARD
1070
     0
  0
DICTIONARY
  5
2A
102
{ACAD_REACTORS
330
C
102
}
330
C
100
AcDbDictionary
  3
2DWIREFRAME
350
2F
  3
BASIC
350
32
  3
BRIGHTEN
350
36
  3
COLORCHANGE
350
3A
  3
CONCEPTUAL
350
34
  3
DIM
350
35
  3
EDGECOLOROFF
350
3D
  3
FACEPATTERN
350
39
  3
FLAT
350
2B
  3
FLATWITHEDGES
350
2C
  3
GOURAUD
350
2D
  3
GOURAUDWITHEDGES
350
2E
  3
HIDDEN
350
31
  3
JITTEROFF
350
3B
  3
LINEPATTERN
350
38
  3
OVERHANGOFF
350
3C
  3
REALISTIC
350
33
  3
SHADED
350
42
  3
SHADED_WITH_EDGES
350
41
  3
SHADES_OF_GRAY
350
3E
  3
SKETCHY
350
3F
  3
THICKEN
350
37
  3
WIREFRAME
350
30
  3
X-RAY
350
40
1001
ACAD
1000
TREAT_AS_HARD
1070
     0
  0
DICTIONARY
  5
6C
102
{ACAD_REACTORS
330
C
102
}
330
C
100
AcDbDictionary
  3
CANNOSCALE
350
F4
  3
CTABLESTYLE
350
EC
  3
DIMASSOC
350
F2
  3
HIDETEXT
350
F3
  3
MSLTSCALE
350
F5
  3
OLEFRAME
350
6D
  3
PSOLHEIGHT
350
EF
  3
PSOLWIDTH
350
EE
1001
ACAD
1000
TREAT_AS_HARD
1070
     0
  0
DICTIONARY
  5
E8
102
{ACAD_REACTORS
330
C
102
}
330
C
100
AcDbDictionary
  3
DIM_UNITS
360
E9
  3
ONSHAPE_VSHARP_EXTENSION
360
EB
  3
ONSHAPE_WELD_STANDARD
360
EA
1001
ACAD
1000
TREAT_AS_HARD
1070
     1
  0
MATERIAL
  5
45
102
{ACAD_REACTORS
330
43
102
}
102
{ACAD_XDICTIONARY
360
F8
102
}
330
43
100
AcDbMaterial
  1
BYBLOCK
  0
MATERIAL
  5
44
102
{ACAD_REACTORS
330
43
102
}
102
{ACAD_XDICTIONARY
360
F6
102
}
330
43
100
AcDbMaterial
  1
BYLAYER
  0
MATERIAL
  5
46
102
{ACAD_REACTORS
330
43
102
}
102
{ACAD_XDICTIONARY
360
FA
102
}
330
43
100
AcDbMaterial
  1
GLOBAL
  0
MLINESTYLE
  5
18
102
{ACAD_REACTORS
330
17
102
}
330
17
100
AcDbMlineStyle
  2
Standard
 70
     0
  3

 62
   256
 51
90.0
 52
90.0
 71
     2
 49
0.5
 62
   256
  6
BYLAYER
 49
-0.5
 62
   256
  6
BYLAYER
  0
ACAD_PROXY_OBJECT
  5
48
102
{ACAD_REACTORS
330
47
102
}
330
47
100
AcDbZombieObject
 90
      499
 91
      503
 93
       41
310
903313A31580
  0
ACAD_PROXY_OBJECT
  5
49
102
{ACAD_REACTORS
330
47
102
}
330
47
100
AcDbZombieObject
 90
      499
 91
      503
 93
      105
310
903313A324000000000000004000
  0
ACAD_PROXY_OBJECT
  5
4A
102
{ACAD_REACTORS
330
47
102
}
330
47
100
AcDbZombieObject
 90
      499
 91
      503
 93
      105
310
903313A344000000000000104000
  0
ACAD_PROXY_OBJECT
  5
4B
102
{ACAD_REACTORS
330
47
102
}
330
47
100
AcDbZombieObject
 90
      499
 91
      503
 93
      105
310
903313A354000000000000144000
  0
ACAD_PROXY_OBJECT
  5
4C
102
{ACAD_REACTORS
330
47
102
}
330
47
100
AcDbZombieObject
 90
      499
 91
      503
 93
      105
310
903313A384000000000000204000
  0
ACAD_PROXY_OBJECT
  5
4D
102
{ACAD_REACTORS
330
47
102
}
330
47
100
AcDbZombieObject
 90
      499
 91
      503
 93
      113
310
904313A31304000000000000244000
  0
ACAD_PROXY_OBJECT
  5
4E
102
{ACAD_REACTORS
330
47
102
}
330
47
100
AcDbZombieObject
 90
      499
 91
      503
 93
      113
310
904313A31364000000000000304000
  0
ACAD_PROXY_OBJECT
  5
4F
102
{ACAD_REACTORS
330
47
102
}
330
47
100
AcDbZombieObject
 90
      499
 91
      503
 93
      113
310
904313A32304000000000000344000
  0
ACAD_PROXY_OBJECT
  5
50
102
{ACAD_REACTORS
330
47
102
}
330
47
100
AcDbZombieObject
 90
      499
 91
      503
 93
      113
310
904313A333040000000000003E4000
  0
ACAD_PROXY_OBJECT
  5
51
102
{ACAD_REACTORS
330
47
102
}
330
47
100
AcDbZombieObject
 90
      499
 91
      503
 93
      113
310
904313A34304000000000000444000
  0
ACAD_PROXY_OBJECT
  5
52
102
{ACAD_REACTORS
330
47
102
}
330
47
100
AcDbZombieObject
 90
      499
 91
      503
 93
      113
310
904313A35304000000000000494000
  0
ACAD_PROXY_OBJECT
  5
53
102
{ACAD_REACTORS
330
47
102
}
330
47
100
AcDbZombieObject
 90
      499
 91
      503
 93
      121
310
905313A3130304000000000000594000
  0
ACAD_PROXY_OBJECT
  5
54
102
{ACAD_REACTORS
330
47
102
}
330
47
100
AcDbZombieObject
 90
      499
 91
      503
 93
      105
310
903323A310000000000000010100
  0
ACAD_PROXY_OBJECT
  5
55
102
{ACAD_REACTORS
330
47
102
}
330
47
100
AcDbZombieObject
 90
      499
 91
      503
 93
      105
310
903343A310000000000000410100
  0
ACAD_PROXY_OBJECT
  5
56
102
{ACAD_REACTORS
330
47
102
}
330
47
100
AcDbZombieObject
 90
      499
 91
      503
 93
      105
310
903383A310000000000000810100
  0
ACAD_PROXY_OBJECT
  5
57
102
{ACAD_REACTORS
330
47
102
}
330
47
100
AcDbZombieObject
 90
      499
 91
      503
 93
      113
310
90431303A310000000000000910100
  0
ACAD_PROXY_OBJECT
  5
58
102
{ACAD_REACTORS
330
47
102
}
330
47
100
AcDbZombieObject
 90
      499
 91
      503
 93
      121
310
9053130303A310000000000001650100
  0
ACAD_PROXY_OBJECT
  5
59
102
{ACAD_REACTORS
330
47
102
}
330
47
100
AcDbZombieObject
 90
      499
 91
      503
 93
      257
310
90E312F31323822203D2031272D3022000000000000200FC000000000000284000
  0
ACAD_PROXY_OBJECT
  5
5A
102
{ACAD_REACTORS
330
47
102
}
330
47
100
AcDbZombieObject
 90
      499
 91
      503
 93
      249
310
90D312F363422203D2031272D3022000000000000240FC000000000000284000
  0
ACAD_PROXY_OBJECT
  5
5B
102
{ACAD_REACTORS
330
47
102
}
330
47
100
AcDbZombieObject
 90
      499
 91
      503
 93
      249
310
90D312F333222203D2031272D3022000000000000280FC000000000000284000
  0
ACAD_PROXY_OBJECT
  5
5C
102
{ACAD_REACTORS
330
47
102
}
330
47
100
AcDbZombieObject
 90
      499
 91
      503
 93
      249
310
90D312F313622203D2031272D30220000000000002C0FC000000000000284000
  0
ACAD_PROXY_OBJECT
  5
5D
102
{ACAD_REACTORS
330
47
102
}
330
47
100
AcDbZombieObject
 90
      499
 91
      503
 93
      249
310
90D332F333222203D2031272D30220000000000002E0FC000000000000284000
  0
ACAD_PROXY_OBJECT
  5
5E
102
{ACAD_REACTORS
330
47
102
}
330
47
100
AcDbZombieObject
 90
      499
 91
      503
 93
      241
310
90C312F3822203D2031272D3022000000000000300FC000000000000284000
  0
ACAD_PROXY_OBJECT
  5
5F
102
{ACAD_REACTORS
330
47
102
}
330
47
100
AcDbZombieObject
 90
      499
 91
      503
 93
      249
310
90D332F313622203D2031272D3022000000000000320FC000000000000284000
  0
ACAD_PROXY_OBJECT
  5
60
102
{ACAD_REACTORS
330
47
102
}
330
47
100
AcDbZombieObject
 90
      499
 91
      503
 93
      241
310
90C312F3422203D2031272D3022000000000000340FC000000000000284000
  0
ACAD_PROXY_OBJECT
  5
61
102
{ACAD_REACTORS
330
47
102
}
330
47
100
AcDbZombieObject
 90
      499
 91
      503
 93
      241
310
90C332F3822203D2031272D3022000000000000360FC000000000000284000
  0
ACAD_PROXY_OBJECT
  5
62
102
{ACAD_REACTORS
330
47
102
}
330
47
100
AcDbZombieObject
 90
      499
 91
      503
 93
      241
310
90C312F3222203D2031272D3022000000000000380FC000000000000284000
  0
ACAD_PROXY_OBJECT
  5
63
102
{ACAD_REACTORS
330
47
102
}
330
47
100
AcDbZombieObject
 90
      499
 91
      503
 93
      241
310
90C332F3422203D2031272D30220000000000003A0FC000000000000284000
  0
ACAD_PROXY_OBJECT
  5
64
102
{ACAD_REACTORS
330
47
102
}
330
47
100
AcDbZombieObject
 90
      499
 91
      503
 93
      161
310
90A3122203D2031272D30224000000000000284000
  0
ACAD_PROXY_OBJECT
  5
65
102
{ACAD_REACTORS
330
47
102
}
330
47
100
AcDbZombieObject
 90
      499
 91
      503
 93
      257
310
90E312D312F3222203D2031272D30220000000000003E0FC000000000000284000
  0
ACAD_PROXY_OBJECT
  5
66
102
{ACAD_REACTORS
330
47
102
}
330
47
100
AcDbZombieObject
 90
      499
 91
      503
 93
      225
310
90A3322203D2031272D302200000000000002100000000000000284000
  0
ACAD_PROXY_OBJECT
  5
67
102
{ACAD_REACTORS
330
47
102
}
330
47
100
AcDbZombieObject
 90
      499
 91
      503
 93
      225
310
90A3622203D2031272D302200000000000006100000000000000284000
  0
ACAD_PROXY_OBJECT
  5
68
102
{ACAD_REACTORS
330
47
102
}
330
47
100
AcDbZombieObject
 90
      499
 91
      503
 93
      249
310
90D31272D3022203D2031272D30220000000000000A100000000000000284000
  0
ACAD_PROXY_OBJECT
  5
2F
102
{ACAD_REACTORS
330
2A
102
}
330
2A
100
AcDbZombieObject
 90
      499
 91
      501
 93
      436
310
42CC9915DA5C99599C985B595049028333333333333E33F0000000000000F90107901411070040501600405405064090741402480A0340
1001
ACAD
1000
AcDbSavedByObjectVersion
1070
     0
  0
ACAD_PROXY_OBJECT
  5
32
102
{ACAD_REACTORS
330
2A
102
}
330
2A
100
AcDbZombieObject
 90
      499
 91
      501
 93
      388
310
4150985CDA58D07406404333333333333E33F0000000000000F90107A41107004050150841D405064090741402480A0350
1001
ACAD
1000
AcDbSavedByObjectVersion
1070
     0
  0
ACAD_PROXY_OBJECT
  5
36
102
{ACAD_REACTORS
330
2A
102
}
330
2A
100
AcDbZombieObject
 90
      499
 91
      501
 93
      428
310
42109C9A59DA1D195B90C409028333333333333E33F0000000000000F9010790141107004050150841D405064090741402480A029950
1001
ACAD
1000
AcDbSavedByObjectVersion
1070
     0
  0
ACAD_PROXY_OBJECT
  5
3A
102
{ACAD_REACTORS
330
2A
102
}
330
2A
100
AcDbZombieObject
 90
      499
 91
      501
 93
      452
310
42D0DBDB1BDC90DA185B99D95104090240C333333333333E33F0000000000000F90108901411070040501508421405064090741402480A0350
1001
ACAD
1000
AcDbSavedByObjectVersion
1070
     0
  0
ACAD_PROXY_OBJECT
  5
34
102
{ACAD_REACTORS
330
2A
102
}
330
2A
100
AcDbZombieObject
 90
      499
 91
      501
 93
      500
310
4290DBDB98D95C1D1D585B10940D028333333333333E33F0000000000000F90107902409070040501000000000018199010841D405064090740C02480A0340
1001
ACAD
1000
AcDbSavedByObjectVersion
1070
     0
  0
ACAD_PROXY_OBJECT
  5
35
102
{ACAD_REACTORS
330
2A
102
}
330
2A
100
AcDbZombieObject
 90
      499
 91
      501
 93
      412
310
40D11A5B50B409028333333333333E33F0000000000000F9010790141107004050150841D405064090741402480A02677FFFFFD0
1001
ACAD
1000
AcDbSavedByObjectVersion
1070
     0
  0
ACAD_PROXY_OBJECT
  5
3D
102
{ACAD_REACTORS
330
2A
102
}
330
2A
100
AcDbZombieObject
 90
      499
 91
      501
 93
      452
310
43115919D950DBDB1BDC93D999916409028333333333333E33F0000000000000F9010790141107004050150841D405064090741402480A0350
1001
ACAD
1000
AcDbSavedByObjectVersion
1070
     0
  0
ACAD_PROXY_OBJECT
  5
39
102
{ACAD_REACTORS
330
2A
102
}
330
2A
100
AcDbZombieObject
 90
      499
 91
      501
 93
      444
310
42D19858D95C185D1D195C9B90F409028333333333333E33F0000000000000F9010790141107004050150841D405064090741402480A0350
1001
ACAD
1000
AcDbSavedByObjectVersion
1070
     0
  0
ACAD_PROXY_OBJECT
  5
2B
102
{ACAD_REACTORS
330
2A
102
}
330
2A
100
AcDbZombieObject
 90
      499
 91
      501
 93
      380
310
41119B185D240901404333333333333E33F0000000000000F9010740A907004050150841D405064090741402480A1B50
1001
ACAD
1000
AcDbSavedByObjectVersion
1070
     0
  0
ACAD_PROXY_OBJECT
  5
2C
102
{ACAD_REACTORS
330
2A
102
}
330
2A
100
AcDbZombieObject
 90
      499
 91
      501
 93
      468
310
43519B185D15DA5D1A115919D95CD0140901404333333333333E33F0000000000000F90107409019070040501600405405064090741402480A1B50
1001
ACAD
1000
AcDbSavedByObjectVersion
1070
     0
  0
ACAD_PROXY_OBJECT
  5
2D
102
{ACAD_REACTORS
330
2A
102
}
330
2A
100
AcDbZombieObject
 90
      499
 91
      501
 93
      404
310
41D1DBDD5C985D5910240902404333333333333E33F0000000000000F9010740A9070040501641D405064090741402480A1B50
1001
ACAD
1000
AcDbSavedByObjectVersion
1070
     0
  0
ACAD_PROXY_OBJECT
  5
2E
102
{ACAD_REACTORS
330
2A
102
}
330
2A
100
AcDbZombieObject
 90
      499
 91
      501
 93
      492
310
4411DBDD5C985D5915DA5D1A115919D95CD0340902404333333333333E33F0000000000000F90107409019070040501600405405064090741402480A1B50
1001
ACAD
1000
AcDbSavedByObjectVersion
1070
     0
  0
ACAD_PROXY_OBJECT
  5
31
102
{ACAD_REACTORS
330
2A
102
}
330
2A
100
AcDbZombieObject
 90
      499
 91
      501
 93
      476
310
41921A5919195B90640502408333333333333E33F0000000000000F901079024090700405020000000000001110200405405064090740C02480A0340
1001
ACAD
1000
AcDbSavedByObjectVersion
1070
     0
  0
ACAD_PROXY_OBJECT
  5
3B
102
{ACAD_REACTORS
330
2A
102
}
330
2A
100
AcDbZombieObject
 90
      499
 91
      501
 93
      428
310
42529A5D1D195C93D999914409028333333333333E33F0000000000000F9010790141107004050150A41D405064090741402480A0350
1001
ACAD
1000
AcDbSavedByObjectVersion
1070
     0
  0
ACAD_PROXY_OBJECT
  5
38
102
{ACAD_REACTORS
330
2A
102
}
330
2A
100
AcDbZombieObject
 90
      499
 91
      501
 93
      444
310
42D31A5B995C185D1D195C9B90E409028333333333333E33F0000000000000F9010790141107004050750841D405064090741402483A0350
1001
ACAD
1000
AcDbSavedByObjectVersion
1070
     0
  0
ACAD_PROXY_OBJECT
  5
3C
102
{ACAD_REACTORS
330
2A
102
}
330
2A
100
AcDbZombieObject
 90
      499
 91
      501
 93
      444
310
42D3DD995C9A185B99D3D999915409028333333333333E33F0000000000000F9010790141107004050150941D405064090741402480A0350
1001
ACAD
1000
AcDbSavedByObjectVersion
1070
     0
  0
ACAD_PROXY_OBJECT
  5
33
102
{ACAD_REACTORS
330
2A
102
}
330
2A
100
AcDbZombieObject
 90
      499
 91
      501
 93
      428
310
425499585B1A5CDD1A58D08409038333333333333E33F0000000000000F9010740A907004050150800405405064090740C02480A1B40
1001
ACAD
1000
AcDbSavedByObjectVersion
1070
     0
  0
ACAD_PROXY_OBJECT
  5
42
102
{ACAD_REACTORS
330
2A
102
}
330
2A
100
AcDbZombieObject
 90
      499
 91
      501
 93
      420
310
4194DA1859195911B40902404333333333333E33F0000000000000F9010740A41107004050150800405405064090840C02480A0B40
1001
ACAD
1000
AcDbSavedByObjectVersion
1070
     0
  0
ACAD_PROXY_OBJECT
  5
41
102
{ACAD_REACTORS
330
2A
102
}
330
2A
100
AcDbZombieObject
 90
      499
 91
      501
 93
      516
310
4454DA18591959081DDA5D1A08195919D95CD1A40902404333333333333E33F0000000000000F901074090142907004050250800405405064090740C02480A0B40
1001
ACAD
1000
AcDbSavedByObjectVersion
1070
     0
  0
ACAD_PROXY_OBJECT
  5
3E
102
{ACAD_REACTORS
330
2A
102
}
330
2A
100
AcDbZombieObject
 90
      499
 91
      501
 93
      532
310
4394DA1859195CC81BD98811DC985E5174090240C333333333333E33F0000000000000F901079024090741D01000000000000111010841D405064090740C02480A0340
1001
ACAD
1000
AcDbSavedByObjectVersion
1070
     0
  0
ACAD_PROXY_OBJECT
  5
3F
102
{ACAD_REACTORS
330
2A
102
}
330
2A
100
AcDbZombieObject
 90
      499
 91
      501
 93
      476
310
41D4DAD95D18DA1E51840502408333333333333E33F0000000000000F901079024090741D01000000000000111010B41D405064090741802480A0340
1001
ACAD
1000
AcDbSavedByObjectVersion
1070
     0
  0
ACAD_PROXY_OBJECT
  5
37
102
{ACAD_REACTORS
330
2A
102
}
330
2A
100
AcDbZombieObject
 90
      499
 91
      501
 93
      412
310
41D51A1A58DAD95B90D409028333333333333E33F0000000000000F9010790141107004050150C41D405064090741402480A0350
1001
ACAD
1000
AcDbSavedByObjectVersion
1070
     0
  0
ACAD_PROXY_OBJECT
  5
30
102
{ACAD_REACTORS
330
2A
102
}
330
2A
100
AcDbZombieObject
 90
      499
 91
      501
 93
      420
310
4255DA5C99599C985B595059028333333333333E33F0000000000000F90107901411070040501600405405064090740C02480A0340
1001
ACAD
1000
AcDbSavedByObjectVersion
1070
     0
  0
ACAD_PROXY_OBJECT
  5
40
102
{ACAD_REACTORS
330
2A
102
}
330
2A
100
AcDbZombieObject
 90
      499
 91
      501
 93
      404
310
41560B54985E51940902404000000000000E03F0000000000000F9010740501907004050150841D405064090740C02480A1B40
1001
ACAD
1000
AcDbSavedByObjectVersion
1070
     0
  0
DICTIONARYVAR
  5
F4
102
{ACAD_REACTORS
330
6C
102
}
330
6C
100
DictionaryVariables
280
     0
  1
1:1
  0
DICTIONARYVAR
  5
EC
102
{ACAD_REACTORS
330
6C
102
}
330
6C
100
DictionaryVariables
280
     0
  1
Standard
  0
DICTIONARYVAR
  5
F2
102
{ACAD_REACTORS
330
6C
102
}
330
6C
100
DictionaryVariables
280
     0
  1
2
  0
DICTIONARYVAR
  5
F3
102
{ACAD_REACTORS
330
6C
102
}
330
6C
100
DictionaryVariables
280
     0
  1
1
  0
DICTIONARYVAR
  5
F5
102
{ACAD_REACTORS
330
6C
102
}
330
6C
100
DictionaryVariables
280
     0
  1
1
  0
DICTIONARYVAR
  5
6D
102
{ACAD_REACTORS
330
6C
102
}
330
6C
100
DictionaryVariables
280
     0
  1
0
  0
DICTIONARYVAR
  5
EF
102
{ACAD_REACTORS
330
6C
102
}
330
6C
100
DictionaryVariables
280
     0
  1
80.000000
  0
DICTIONARYVAR
  5
EE
102
{ACAD_REACTORS
330
6C
102
}
330
6C
100
DictionaryVariables
280
     0
  1
5.000000
  0
XRECORD
  5
E9
102
{ACAD_REACTORS
330
E8
102
}
330
E8
100
AcDbXrecord
 70
     4
  0
XRECORD
  5
EB
102
{ACAD_REACTORS
330
E8
102
}
330
E8
100
AcDbXrecord
 90
        0
  0
XRECORD
  5
EA
102
{ACAD_REACTORS
330
E8
102
}
330
E8
100
AcDbXrecord
 90
        1
  0
DICTIONARY
  5
F8
330
45
100
AcDbDictionary
  3
ACAD_XREC_ROUNDTRIP
360
F9
1001
ACAD
1000
TREAT_AS_HARD
1070
     1
  0
DICTIONARY
  5
F6
330
44
100
AcDbDictionary
  3
ACAD_XREC_ROUNDTRIP
360
F7
1001
ACAD
1000
TREAT_AS_HARD
1070
     1
  0
DICTIONARY
  5
FA
330
46
100
AcDbDictionary
  3
ACAD_XREC_ROUNDTRIP
360
FB
1001
ACAD
1000
TREAT_AS_HARD
1070
     1
  0
XRECORD
  5
F9
102
{ACAD_REACTORS
330
F8
102
}
330
F8
100
AcDbXrecord
102
MATERIAL
148
0.0
149
0.0
149
0.0
 93
        0
 94
      127
282
     0
 72
     1
 77
     1
171
     1
175
     1
179
     1
273
     0
  0
XRECORD
  5
F7
102
{ACAD_REACTORS
330
F6
102
}
330
F6
100
AcDbXrecord
102
MATERIAL
148
0.0
149
0.0
149
0.0
 93
        0
 94
      127
282
     0
 72
     1
 77
     1
171
     1
175
     1
179
     1
273
     0
  0
XRECORD
  5
FB
102
{ACAD_REACTORS
330
FA
102
}
330
FA
100
AcDbXrecord
102
MATERIAL
148
0.0
149
0.0
149
0.0
 93
        0
 94
      127
282
     0
 72
     1
 77
     1
171
     1
175
     1
179
     1
273
     0
  0
ENDSEC
  0
EOF
